# Blender v2.75 (sub 0) OBJ File: 'Scene1.blend'
# www.blender.org
o NurbsPath
v -3.000000 0.150000 1.500000
v -2.539868 0.150000 -1.359294
v -2.398579 0.150000 -2.717394
v -2.617277 0.150000 -3.299416
v -2.008880 0.150000 -3.556771
v 0.447361 0.150000 -3.402812
v 2.571903 0.150000 -2.949296
v 3.071681 0.150000 -2.133126
v 2.970662 0.150001 -0.823813
v 2.652470 0.150002 0.701251
v 2.345929 0.150002 2.341160
v -0.631857 0.150002 2.978140
l 1 2
l 2 3
l 3 4
l 4 5
l 5 6
l 6 7
l 7 8
l 8 9
l 9 10
l 10 11
l 11 12
